<svg xmlns="http://www.w3.org/2000/svg" width="119.404" height="35" viewBox="0 0 119.404 35">
  <g id="logo" transform="translate(0 -0.497)">
    <g id="Group_129" data-name="Group 129" transform="translate(0 0)">
      <path id="Fill-1" d="M23.856,23.557l-.033-11.938A11.938,11.938,0,0,0,0,11.619V34.234a17.9,17.9,0,0,0,8.328-6.352,17.934,17.934,0,0,0,3.3-10.992h1.181a20.2,20.2,0,0,1-.3,3.986,19.113,19.113,0,0,1-1.161,3.988A18.767,18.767,0,0,1,9.293,28.57a18.76,18.76,0,0,1-3.287,3.537,19.3,19.3,0,0,1-3.99,2.549A20.26,20.26,0,0,1,0,35.489H12.434v-.011A11.912,11.912,0,0,0,23.822,23.557ZM4.036,28.451,2.825,26.475,4.036,24.5l1.21,1.977Zm-2.879.764,1.211-1.977,1.211,1.977L2.368,31.193Zm1.211-7.573,1.211,1.977L2.368,25.6,1.157,23.619Zm18.681-12.4a4.841,4.841,0,0,1-.434,2.01c-.04.089-.086.181-.135.275A4.367,4.367,0,0,1,19.1,13.184a5.328,5.328,0,0,1-.573.394,10.306,10.306,0,0,1-2.937,1.183,15.317,15.317,0,0,1-3.683.432A15.738,15.738,0,0,1,8.855,14.9a11.966,11.966,0,0,1-2.6-.813,7.225,7.225,0,0,1-1.962-1.261A3.8,3.8,0,0,1,3.2,11.171a4.86,4.86,0,0,1,.043-3.944,5.183,5.183,0,0,1,1.137-1.6v0l.024-.023A5.194,5.194,0,0,1,6.1,4.534a5.557,5.557,0,0,1,2.04-.383h0a5.532,5.532,0,0,1,2.069.4,5.345,5.345,0,0,1,1.695,1.086.042.042,0,0,0,.04,0,5.342,5.342,0,0,1,1.695-1.086,5.614,5.614,0,0,1,4.111-.014A5.2,5.2,0,0,1,19.445,5.6l.012.012a5.189,5.189,0,0,1,1.152,1.611A4.824,4.824,0,0,1,21.049,9.247Zm-1.394,1.576a3.81,3.81,0,0,0,0-3.16,4.162,4.162,0,0,0-.929-1.294l-.032-.03A4.4,4.4,0,0,0,15.713,5.2a4.48,4.48,0,0,0-1.678.321,4.3,4.3,0,0,0-1.362.873,4.041,4.041,0,0,0-.339.37l-.406.492-.406-.492a4.175,4.175,0,0,0-.34-.37A4.3,4.3,0,0,0,9.82,5.525,4.478,4.478,0,0,0,8.144,5.2,4.338,4.338,0,0,0,5.159,6.346h0l-.025.023a4.158,4.158,0,0,0-.929,1.294,3.8,3.8,0,0,0-.023,3.115l.014.031.009.033A4.188,4.188,0,0,0,6.69,13.129a12.98,12.98,0,0,0,5.219,1.011,11.937,11.937,0,0,0,6.07-1.46l.008-.005a4.075,4.075,0,0,0,.464-.319l.007-.005a3.321,3.321,0,0,0,1.065-1.26l.008-.019.009-.018C19.583,10.976,19.621,10.9,19.655,10.823ZM13.424,9.376l-1.29,2.571a.189.189,0,0,1-.36,0L10.483,9.376c-.1-.176-.015-.32.187-.32h2.567C13.439,9.057,13.523,9.2,13.424,9.376Z" transform="translate(0 0.008)" fill="#df542f" fill-rule="evenodd"/>
      <path id="Fill-3" d="M16.353,18.542c0,.822-.495,1.489-1.105,1.489s-1.1-.667-1.1-1.489a1.919,1.919,0,0,1,.1-.6.433.433,0,0,0,.42.339.438.438,0,1,0,0-.876.432.432,0,0,0-.139.028.958.958,0,0,1,.726-.375c.61,0,1.105.667,1.105,1.489m-.939-2.382c-.054,0-.109-.005-.163-.005a2.39,2.39,0,0,0-.168,4.77c.054,0,.109.006.162.006h0a2.39,2.39,0,0,0,.169-4.77" transform="translate(-7.787 -9.934)" fill="#fffffe" fill-rule="evenodd"/>
      <path id="Fill-5" d="M38.83,18.542c0,.822-.495,1.489-1.105,1.489s-1.1-.667-1.1-1.489a1.921,1.921,0,0,1,.1-.6.433.433,0,0,0,.42.339.438.438,0,1,0,0-.876.433.433,0,0,0-.139.028.958.958,0,0,1,.727-.375c.61,0,1.105.667,1.105,1.489M37.89,16.16c-.054,0-.109-.005-.162-.005a2.39,2.39,0,0,0-.168,4.77c.054,0,.109.006.163.006h0a2.39,2.39,0,0,0,.168-4.77" transform="translate(-21.339 -9.934)" fill="#fffffe" fill-rule="evenodd"/>
      <path id="Fill-7" d="M270.158,5.8a5.8,5.8,0,0,0-1.638-1.71,9.139,9.139,0,0,0-2.875-1.35,13.255,13.255,0,0,0-3.533-.439,10.421,10.421,0,0,0-6.6,1.861,6.247,6.247,0,0,0-2.361,5.2,5.958,5.958,0,0,0,1.614,4.505q1.614,1.55,6.208,2.588c.085.022.2.048.338.08q5.958,1.358,5.959,3.467a2.545,2.545,0,0,1-1.157,2.269,6.226,6.226,0,0,1-3.421.767,6.607,6.607,0,0,1-2.465-.415,4.275,4.275,0,0,1-1.743-1.278q-.257-.319-.675-.959a2.994,2.994,0,0,0-2.377-1.662,2.062,2.062,0,0,0-1.59.663,2.436,2.436,0,0,0-.61,1.718,4.03,4.03,0,0,0,.635,2.069A6.128,6.128,0,0,0,255.558,25a11.194,11.194,0,0,0,3.244,1.6,14.05,14.05,0,0,0,3.967.5,10.357,10.357,0,0,0,6.786-2.045,6.805,6.805,0,0,0,2.482-5.544,6.827,6.827,0,0,0-.707-3.243,5.38,5.38,0,0,0-2.184-2.157,11.924,11.924,0,0,0-2.016-.855q-1.18-.391-3.718-1.015-.531-.128-1.51-.367-4.048-.943-4.048-2.8A2.448,2.448,0,0,1,258.9,6.965a4.97,4.97,0,0,1,2.939-.751,6.329,6.329,0,0,1,2.272.368,3.862,3.862,0,0,1,1.582,1.1q.16.208.466.591a3.238,3.238,0,0,0,2.457,1.55,2.15,2.15,0,0,0,1.574-.583,2.084,2.084,0,0,0,.594-1.558,3.608,3.608,0,0,0-.627-1.885" transform="translate(-152.634 3.197)" fill="#84bf41" fill-rule="evenodd"/>
      <path id="Fill-9" d="M200.05,22.036h9.171l1.125,3.371a2.562,2.562,0,0,0,.859,1.334,2.4,2.4,0,0,0,1.47.424,2.478,2.478,0,0,0,1.719-.591,1.965,1.965,0,0,0,.659-1.534,3.433,3.433,0,0,0-.056-.623,3.273,3.273,0,0,0-.185-.623L208.146,5.452a3.9,3.9,0,0,0-1.277-2,6.151,6.151,0,0,0-4.586.024,4.038,4.038,0,0,0-1.253,2.037l-6.537,18.278a3.247,3.247,0,0,0-.185.623,3.4,3.4,0,0,0-.056.623,1.97,1.97,0,0,0,.65,1.542,2.775,2.775,0,0,0,3.188.152,2.58,2.58,0,0,0,.867-1.326Zm7.854-3.962h-6.569l3.277-10.018Z" transform="translate(-117.122 2.473)" fill="#df542f" fill-rule="evenodd"/>
      <path id="Fill-11" d="M143.9,18.208h5.156a3.891,3.891,0,0,1,2.594.663q.731.663.924,3.491.241,3.579.891,4.449a3.055,3.055,0,0,0,3.943.28,2.041,2.041,0,0,0,.659-1.6,6.042,6.042,0,0,0-.177-1.11q-.177-.791-.241-1.206a9.793,9.793,0,0,1-.112-1.438q-.033-1.054-.1-1.709a5.1,5.1,0,0,0-.835-2.556,3.951,3.951,0,0,0-2.024-1.406,4.576,4.576,0,0,0,2.61-1.965,6.619,6.619,0,0,0,.908-3.595,6.369,6.369,0,0,0-1.863-5.033q-1.863-1.646-5.734-1.646h-8.513a2.879,2.879,0,0,0-2.313.775,4.8,4.8,0,0,0-.642,2.932V25.078a2.734,2.734,0,0,0,.6,1.925,2.374,2.374,0,0,0,1.823.647,2.414,2.414,0,0,0,1.839-.639,2.727,2.727,0,0,0,.6-1.933Zm5.943-10.321a3.614,3.614,0,0,1,2.529.791,3,3,0,0,1,.86,2.325,2.951,2.951,0,0,1-.876,2.365,4.148,4.148,0,0,1-2.739.751H143.9V7.887Z" transform="translate(-83.831 1.668)" fill="#005093" fill-rule="evenodd"/>
      <path id="Fill-13" d="M87.637,21.456a5.68,5.68,0,0,1-3.871,1.358,5.909,5.909,0,0,1-4.843-2.181,9.243,9.243,0,0,1-1.775-6,9.486,9.486,0,0,1,1.71-6,5.627,5.627,0,0,1,4.682-2.181,5.428,5.428,0,0,1,2.441.511,6.035,6.035,0,0,1,1.992,1.742,5.613,5.613,0,0,0,1.389,1.31,2.7,2.7,0,0,0,1.341.319,1.983,1.983,0,0,0,1.518-.671,2.381,2.381,0,0,0,.619-1.677,3.671,3.671,0,0,0-.964-2.356,8.677,8.677,0,0,0-2.714-2.069,11.665,11.665,0,0,0-2.714-.943A14.561,14.561,0,0,0,83.333,2.3a10.536,10.536,0,0,0-8.183,3.355Q72.09,9.01,72.09,14.666a12.983,12.983,0,0,0,3.068,9.011A10.3,10.3,0,0,0,83.2,27.1a8.755,8.755,0,0,0,3.927-.831,8.546,8.546,0,0,0,3.012-2.6l.369,1.773a2.21,2.21,0,0,0,.627,1.19,1.656,1.656,0,0,0,1.156.408,1.56,1.56,0,0,0,1.293-.511A2.577,2.577,0,0,0,94,24.907V15.912a2.061,2.061,0,0,0-.626-1.709,3.653,3.653,0,0,0-2.2-.5H85.935a2.132,2.132,0,0,0-1.518.519,1.845,1.845,0,0,0-.554,1.414,2.061,2.061,0,0,0,.57,1.518,2.02,2.02,0,0,0,1.5.575h3.63a5.966,5.966,0,0,1-1.927,3.723" transform="translate(-43.466 3.197)" fill="#3ea447" fill-rule="evenodd"/>
    </g>
  </g>
</svg>
